<?xml version="1.0" encoding="UTF-8"?>
<svg version="1.1" viewBox="0 0 1600 1600" width="1280" height="1280" xmlns="http://www.w3.org/2000/svg">
<path transform="translate(1042 64.8)" d="m0 0c55.1-1.59 109 21.2 154 51.2 0.691 0.457 1.38 0.915 2.1 1.39 17.4 11.6 34.1 24.4 49.6 38.5 2.04 1.86 4.11 3.68 6.2 5.48 9.3 8.14 18.2 16.6 26.9 25.3 0.895 0.891 1.79 1.78 2.71 2.7 4.48 4.5 8.83 9.05 13 13.9 2.07 2.41 4.23 4.73 6.38 7.06 4.17 4.57 8.11 9.28 12 14.1 1.9 2.31 3.86 4.52 5.88 6.72 5.64 6.27 10.6 13.1 15.7 19.8 1.39 1.83 2.79 3.65 4.2 5.46 6.17 7.91 12 16 17.7 24.3 1.71 2.44 3.43 4.87 5.16 7.3 6.7 9.46 13.1 19 19.2 28.9 1.4 2.28 2.82 4.54 4.24 6.8 13.6 21.6 26 43.9 38.1 66.3 0.413 0.763 0.827 1.53 1.25 2.31 5.27 9.74 10.2 19.6 14.8 29.7 1.17 2.53 2.34 5.05 3.52 7.57 0.573 1.23 1.15 2.46 1.72 3.69 1.5 3.23 3.03 6.45 4.61 9.65 13.5 27.6 24.4 56.5 35.3 85.1 0.698 1.83 1.4 3.65 2.11 5.47 32.4 84.1 52.7 174 28.6 530-9.17 20.5-19.4 40.1-33 58-0.633 0.847-0.633 0.847-1.28 1.71-33.7 45-77.2 71.2-133 79.4-24.2 3.11-47.4 0.783-71.1-4.83-8.12-1.85-16-2.87-24.3-3.34-1.26-0.0793-2.51-0.159-3.81-0.24-3.4-0.213-6.8-0.411-10.2-0.603-2.17-0.123-4.33-0.249-6.5-0.376-10.3-0.601-20.7-1.15-31-1.68-1.85-0.0957-1.85-0.0957-3.74-0.193-94.2-4.8-189-2.24-325 6.33-0.766 0.0591-1.53 0.118-2.32 0.179-1.98 0.153-3.95 0.313-5.93 0.472-5.35 0.352-10.7 0.253-16.1 0.212 6.38 53.3 12.8 107 19.4 160 0.682 5.5 1.36 11 2.04 16.5 3.09 25 3.09 25 6.22 49.9 0.792 6.28 1.58 12.6 2.36 18.8 0.429 3.46 0.862 6.92 1.31 10.4 6.19 48.4 6.19 48.4-7.33 66.5-2.38 2.75-2.38 2.75-5 5-0.55 0.48-1.1 0.959-1.67 1.45-5.56 4.54-11.6 7.08-18.3 9.55-1.18 0.433-2.35 0.866-3.56 1.31-9.44 1.89-17 0.302-25.8-3.19-2.24-0.843-4.48-1.68-6.71-2.52-1.15-0.435-2.3-0.871-3.48-1.32-5.42-2.03-10.9-3.91-16.4-5.78-1.16-0.4-2.33-0.801-3.53-1.21-16.6-5.7-33.2-11.3-49.8-17-1.07-0.365-2.15-0.729-3.25-1.1-5.08-1.72-10.2-3.45-15.2-5.17-10.2-3.47-20.4-6.95-30.6-10.5-3.07-1.05-6.13-2.1-9.21-3.15-3.59-1.22-7.18-2.45-10.8-3.7-1.89-0.653-3.79-1.29-5.68-1.93-25-8.75-33.8-23.8-44.7-46.6-5.12-10.6-10.1-21.3-15-32.1-2.6-5.7-5.31-11.3-8.13-16.9-3.72-7.38-7.27-14.8-10.8-22.3-5.45-11.7-11-23.3-16.6-34.9-5.01-10.3-9.86-20.7-14.6-31.1-2.93-6.39-5.98-12.7-9.17-19-3.39-6.7-6.46-13.5-9.54-20.4-0.6-1.34-0.6-1.34-1.21-2.7-0.352-0.788-0.705-1.58-1.07-2.39-1.32-2.85-2.72-5.65-4.13-8.45-39.8 5.8-79.5 12.1-119 19.2-0.869 0.155-1.74 0.309-2.63 0.468-9.58 1.71-19.1 3.64-28.6 5.88-0.869 0.206-1.74 0.411-2.63 0.623-5.51 1.33-10.9 2.89-16.2 4.88-9.65 3.01-19.2 3.3-29.2 3.27-0.753-8.76e-4 -1.51-0.00175-2.28-0.00266-38.9-0.149-75.3-16.2-105-40.4l-2.59-2.02c-5.21-4.08-10.2-8.39-15.1-12.9-1.98-1.8-3.99-3.53-6.04-5.25-9.55-8.35-18.5-17.5-26.4-27.4-1.8-2.25-3.68-4.34-5.64-6.45-16.1-17.9-29.4-39.2-41.3-60-0.554-0.964-0.554-0.964-1.12-1.95-2.67-4.66-5.31-9.34-7.88-14.1l-1.81-3.31c-4.77-8.79-9.18-17.7-13.3-26.8-0.316-0.693-0.631-1.39-0.956-2.1-7.82-17.3-14.5-34.9-20.9-52.8-0.229-0.638-0.458-1.28-0.693-1.93-13.6-38.1-22.8-77.8-27.3-118l-0.355-3.08c-7.2-65.5-0.993-142 41-195 6.66-7.99 13.5-15.4 21.6-22 0.534-0.447 1.07-0.893 1.62-1.35 11.1-8.76 23.9-14.5 37.1-19.2 4.04-1.45 8.06-2.95 12.1-4.45 0.823-0.307 1.65-0.613 2.49-0.929 13.7-5.14 27.1-11.1 40.5-17 2.95-1.3 5.91-2.58 8.87-3.87 27.1-11.8 53.6-24.7 80.1-37.9 0.953-0.474 1.91-0.948 2.89-1.44 10.9-5.45 21.8-11 32.4-17 4.77-2.66 9.58-5.17 14.5-7.56 12.4-6.08 24.4-13 36.2-20.1 4.32-2.61 8.72-5.05 13.2-7.45 17.3-9.33 34.1-19.2 50.8-29.5 1.78-1.09 3.55-2.19 5.33-3.28 11.7-7.19 23.3-14.5 34.8-21.9 2.91-1.86 5.83-3.7 8.74-5.55 0.975-0.618 1.95-1.24 2.96-1.87 1.84-1.17 3.69-2.33 5.54-3.5 5.19-3.29 10.3-6.71 15.3-10.3 3.11-2.18 6.26-4.28 9.43-6.37 21-13.9 41.5-28.4 61.9-43.2 0.756-0.551 1.51-1.1 2.29-1.67 18.1-13.2 36-26.9 53.7-40.7 1.93-1.51 3.87-3.01 5.81-4.52 6.23-4.85 12.3-9.81 18.3-15 3.84-3.28 7.77-6.41 11.8-9.49 6.98-5.42 13.6-11.2 20.3-17 3.04-2.65 6.11-5.26 9.18-7.88 4.89-4.18 9.71-8.42 14.5-12.7 2.01-1.82 4.05-3.6 6.09-5.38 4.41-3.84 8.7-7.81 13-11.8 2.29-2.1 4.62-4.15 6.97-6.19 4.32-3.76 8.49-7.66 12.7-11.6 0.708-0.665 1.42-1.33 2.14-2.01 3.52-3.32 6.99-6.67 10.4-10.1 2.47-2.49 4.98-4.85 7.65-7.12 5.48-4.72 10.5-9.88 15.6-15 1.73-1.74 3.47-3.47 5.21-5.2 5.12-5.12 10.1-10.2 14.8-15.8 3.87-4.39 8.15-8.4 12.3-12.5 4.05-4.01 7.91-8.1 11.6-12.4 2.21-2.54 4.51-4.97 6.82-7.41 9.08-9.59 17.2-19.2 24.1-30.5 4.14-6.74 8.78-12.9 13.8-19 0.467-0.57 0.933-1.14 1.41-1.73 10.5-12.8 21.7-24.1 35-34 1.48-1.11 2.94-2.24 4.4-3.37 31.8-24.2 70.7-32.8 110-35.1zm-70.7 136c-36.4 40.8-45.5 98-53.7 150-0.296 1.89-0.598 3.78-0.9 5.66-1.23 8.02-1.84 15.9-2.1 24.1-0.0471 1.16-0.0941 2.32-0.143 3.52-0.494 5.53-0.494 5.53 0.83 10.7 2.18 0.483 2.18 0.483 4.83 0.676 1.02 0.103 2.03 0.206 3.08 0.312 1.1 0.107 2.2 0.215 3.34 0.325 34.7 3.81 66 16.3 93.8 37.7 1 0.77 2 1.54 3.03 2.33 13.4 10.7 25.9 22.7 37 35.7 0.928 1.06 1.86 2.13 2.79 3.19 5.95 6.84 11.7 13.8 17 21.1 1.36 1.87 2.74 3.72 4.12 5.57 15.8 21.3 29.3 44 42.1 67.1 0.449 0.803 0.898 1.61 1.36 2.43 41.5 74.6 66.4 163 62.6 281-0.0965 0.891-0.193 1.78-0.292 2.7-4.35 38.2-16 75.1-38.7 106-0.687 0.951-1.37 1.9-2.08 2.88-5.61 7.34-12.3 13.7-18.9 20.1 1.62 3.92 4.31 6.72 7.19 9.75 0.932 0.994 1.86 1.99 2.79 2.98 0.491 0.525 0.982 1.05 1.49 1.59 1.6 1.75 3.14 3.54 4.68 5.34 4.36 5.01 9.06 9.69 13.8 14.4 1.52 1.51 3.03 3.03 4.55 4.55 5.34 5.34 10.8 10.5 16.5 15.4 1.2 1.06 2.41 2.12 3.61 3.18 11 9.64 22.3 18.6 34.4 26.8 1.07 0.748 2.14 1.5 3.25 2.27 33.7 23.3 74.6 40.2 116 34.4 28-5.86 51.9-28.7 67.2-51.8 28-43.7 36.6-94.6 42-145 0.116-1.09 0.231-2.18 0.35-3.3 1.7-17.1 2.11-34.2 2.09-51.4-6.04e-4 -1-0.00121-2-0.00183-3.04-0.0902-55.5-7.54-111-20.2-165-0.172-0.742-0.345-1.48-0.522-2.25-5.72-24.6-12.7-48.7-20.5-72.8-0.596-1.85-0.596-1.85-1.2-3.75-21.7-66.8-49.8-134-85.3-195-1.53-2.64-3.03-5.29-4.52-7.94-15.5-27.5-32.9-54.4-52-79.6-0.726-0.986-1.45-1.97-2.2-2.99-5.85-7.92-12-15.5-18.3-23.2-1.35-1.65-2.69-3.31-4.03-4.97-4.31-5.33-8.75-10.5-13.4-15.5-1.93-2.13-3.81-4.29-5.68-6.46-3.04-3.49-6.27-6.74-9.58-9.98-1.7-1.73-3.22-3.51-4.73-5.4-0.701-0.825-1.4-1.65-2.12-2.5h-2c-0.33-0.99-0.66-1.98-1-3-1.56-1.58-1.56-1.58-3.5-3.12-3.1-2.62-5.99-5.34-8.81-8.25-4.04-4.09-8.33-7.72-12.8-11.3-2.92-2.35-5.77-4.76-8.62-7.18-57.7-48.1-139-84-198-19.1zm-162 169c-3.28 3.02-6.57 6.02-9.94 8.94-3.16 2.74-6.24 5.55-9.31 8.38-4.54 4.14-9.22 8.05-14 11.9-2.63 2.17-5.16 4.42-7.68 6.71-4.25 3.87-8.63 7.51-13.1 11.1-3.11 2.54-6.17 5.14-9.22 7.75-5.08 4.33-10.3 8.48-15.5 12.6-3.72 2.9-7.36 5.88-11 8.93-6.08 5.11-12.4 9.91-18.7 14.7-3.73 2.84-7.44 5.71-11.1 8.61-8.47 6.64-17.1 13.1-25.8 19.4-4.27 3.13-8.5 6.31-12.7 9.5-7.51 5.66-15.2 11.1-22.9 16.5-2.43 1.71-4.84 3.44-7.25 5.17-5.25 3.77-10.5 7.49-15.8 11.1-1.02 0.701-1.02 0.701-2.06 1.42-8.45 5.8-16.9 11.6-25.4 17.3-1.85 1.25-3.71 2.51-5.56 3.77-11.5 7.81-23.1 15.4-35 22.5-3.75 2.26-7.44 4.62-11.1 6.97-22 13.9-44.2 27.3-66.8 40.4-2.69 1.56-5.38 3.13-8.07 4.7-9.66 5.63-19.4 11.1-29.2 16.5-3.04 1.68-6.07 3.38-9.11 5.07-16.4 9.17-33.1 17.9-49.9 26.5-5 2.56-9.98 5.16-14.9 7.78-11.7 6.15-23.5 11.9-35.4 17.5-3.57 1.7-7.13 3.43-10.7 5.16-13.8 6.7-27.6 13.3-41.7 19.4l-3.33 1.46c-20.1 8.81-40.3 17.3-60.7 25.3-1.14 0.449-2.28 0.898-3.45 1.36-2.16 0.849-4.32 1.69-6.48 2.53-14.1 5.56-21.1 14.2-27.1 27.9-5.91 14.8-8.37 30.6-9.96 46.4-0.141 1.4-0.141 1.4-0.286 2.83-6.44 69.9 12.4 142 42.3 204 0.442 0.94 0.884 1.88 1.34 2.85 12.3 26.1 27.9 51.3 45.7 74.2 0.633 0.816 1.27 1.63 1.92 2.47 2 2.53 4.03 5.04 6.08 7.53 0.426 0.518 0.852 1.04 1.29 1.57 11.6 14 24 26.6 38.7 37.4l2.61 1.99c17.4 12.8 33.4 16.8 54.7 13.6 5.62-0.965 11.1-2.37 16.6-3.83 14.7-3.79 29.6-7.04 44.4-10.2 2.14-0.449 4.27-0.9 6.41-1.35 44.2-9.33 88.6-17.4 133-24.8 2.91-0.479 5.81-0.96 8.72-1.44 86.8-14.3 174-24.8 437-41.6 0.832-0.0196 1.66-0.0391 2.52-0.0593 32.3-0.749 64.7-1.05 97-1.44-1.62-3.44-3.43-5.61-6.19-8.25-3.44-3.37-6.67-6.8-9.8-10.5-2.61-2.99-5.31-5.89-8.01-8.8-6.7-7.24-13.1-14.6-19.4-22.3-1.92-2.36-3.87-4.7-5.83-7.04-8.1-9.69-15.7-19.6-23.1-29.9-1.57-2.16-3.15-4.31-4.74-6.46-31.5-42.7-59.7-89.1-82.9-137-0.891-1.77-1.78-3.54-2.68-5.31-1.79-3.55-3.56-7.12-5.32-10.7-0.739-1.49-0.739-1.49-1.49-3.02-13.2-26.8-25.2-54.1-36.2-81.8-0.9-2.24-1.81-4.49-2.73-6.72-3.75-9.16-7.02-18.4-10-27.8-0.25-0.775-0.5-1.55-0.758-2.35-28.4-88.2-46.9-179-54.3-324-0.041-4.31-0.0916-8.63-0.141-12.9-0.095-8.37-0.18-16.7-0.258-25.1-2.18 0-4.62 3.23-6.06 4.56zm111 124c-0.369 10.2 0.743 20 2.06 30 0.11 0.846 0.22 1.69 0.333 2.56 9.72 74.3 31.6 150 60.6 218 0.473 1.13 0.946 2.26 1.43 3.43 15 35.7 31.6 70.8 50.6 105 0.492 0.877 0.984 1.75 1.49 2.66 8.96 15.9 18.1 31.8 28.1 47.1 0.406 0.639 0.811 1.28 1.23 1.94 1.24 1.92 1.24 1.92 3.21 4.31h3c10.3-11.8 14.4-31 17-46 0.15-0.815 0.299-1.63 0.453-2.47 12.9-72.8-7.9-157-38.7-223-0.473-1.02-0.945-2.04-1.43-3.08-1.43-3.06-2.87-6.11-4.32-9.17-0.423-0.893-0.847-1.79-1.28-2.71-14.4-30.1-33.1-58.8-55.3-83.7-1.36-1.53-2.68-3.09-3.99-4.65-15.9-18.3-40.1-36.1-64.4-39.9zm-178 716c-1.22 0.161-2.44 0.322-3.7 0.488-1.35 0.18-2.7 0.359-4.05 0.539-1.4 0.186-2.81 0.371-4.21 0.557-3.77 0.499-7.54 0.999-11.3 1.5-2.33 0.309-4.66 0.618-6.99 0.927-25.3 3.36-50.7 6.77-76 10.3-1.34 4.03 0.145 6.16 1.88 9.79 0.315 0.682 0.631 1.36 0.956 2.07 1.05 2.26 2.11 4.51 3.17 6.77 0.739 1.59 1.48 3.18 2.21 4.77 1.52 3.28 3.04 6.56 4.57 9.83 2.94 6.31 5.82 12.6 8.69 19 0.913 2.01 1.83 4.02 2.74 6.03 3.39 7.47 6.77 14.9 10.1 22.4 0.37 0.825 0.741 1.65 1.12 2.5 1.51 3.37 3.03 6.74 4.54 10.1 6.33 14.1 12.8 28.2 19.2 42.2 0.659 1.43 1.32 2.85 1.98 4.28 0.316 0.682 0.631 1.36 0.957 2.07 1.63 3.54 3.22 7.1 4.75 10.7 0.314 0.733 0.627 1.47 0.95 2.22 0.593 1.39 1.18 2.79 1.76 4.19 1.76 4.13 3.12 7.13 7.36 8.95 0.765 0.227 1.53 0.454 2.32 0.688 0.872 0.264 1.74 0.528 2.64 0.8 0.944 0.275 1.89 0.55 2.86 0.834 0.981 0.295 1.96 0.589 2.97 0.893 3.15 0.943 6.3 1.87 9.45 2.8 4.11 1.22 8.22 2.45 12.3 3.68 1.49 0.442 1.49 0.442 3 0.893 6.95 2.08 13.8 4.31 20.7 6.71 2.74 0.99 2.74 0.99 5.74 0.843-0.62-10.3-1.71-20.6-3.01-30.8-0.204-1.64-0.408-3.28-0.611-4.92-0.548-4.42-1.1-8.83-1.66-13.2-0.582-4.65-1.16-9.3-1.74-13.9-1.1-8.8-2.2-17.6-3.3-26.4-1.25-9.96-2.49-19.9-3.73-29.9-2.13-17.1-4.26-34.1-6.39-51.2-0.09-0.721-0.18-1.44-0.273-2.18-0.175-1.4-0.351-2.8-0.527-4.2-0.449-3.57-0.888-7.15-1.31-10.7-0.133-1.11-0.133-1.11-0.269-2.24-0.245-2.04-0.487-4.08-0.729-6.12-0.282-3-0.282-3-1.46-5.09-2.63 0-5.16 0.385-7.77 0.731z" fill="#000002"></path>
</svg>
